<?xml version="1.0" encoding="utf-8"?>
<!-- Generator: Adobe Illustrator 16.0.0, SVG Export Plug-In . SVG Version: 6.00 Build 0)  -->
<!DOCTYPE svg PUBLIC "-//W3C//DTD SVG 1.1//EN" "http://www.w3.org/Graphics/SVG/1.1/DTD/svg11.dtd">
<svg version="1.1" id="Layer_1" xmlns="http://www.w3.org/2000/svg" xmlns:xlink="http://www.w3.org/1999/xlink" x="0px" y="0px"
	 width="272px" height="379.654px" viewBox="0 0 272 379.654" enable-background="new 0 0 272 379.654" xml:space="preserve">
<g>
	<g>
		<path fill="#F1F2F2" d="M215.527,3.365L208,75.829c-1.945-0.184-145.087-0.283-145.087-0.283c-32.731,0-59.26,26.519-59.26,59.235
			l4.376,121.694c0,32.712,26.519,59.24,59.251,59.24h2.188c-9.135,6.341-15.12,16.887-15.12,28.841
			c0,19.378,15.69,35.098,35.073,35.098c19.373,0,35.079-15.72,35.079-35.098c0-11.954-6-22.5-15.131-28.841h49.658
			c-9.136,6.341-15.141,16.887-15.141,28.841c0,19.378,15.722,35.098,35.084,35.098c19.382,0,35.104-15.72,35.104-35.098
			c0-12.431-6.501-23.333-16.267-29.566c28.518-4.276,50.406-28.815,50.406-58.515L268.847,3.365H215.527z M89.42,357.895
			c-7.384,0-13.348-5.955-13.348-13.338c0-7.359,5.964-13.329,13.348-13.329c7.364,0,13.339,5.97,13.339,13.329
			C102.759,351.939,96.785,357.895,89.42,357.895z M178.97,357.895c-7.354,0-13.349-5.955-13.349-13.338
			c0-7.359,5.994-13.329,13.349-13.329c7.373,0,13.349,5.97,13.349,13.329C192.319,351.939,186.343,357.895,178.97,357.895z
			 M194.905,229.461c0,18.222-14.744,32.96-32.94,32.96H94.284c-18.211,0-32.955-14.738-32.955-32.96l-4.371-67.671
			c0-18.191,14.758-32.964,32.955-32.964h113.72L194.905,229.461z"/>
		<path fill="#F1F2F2" d="M77.909,186.319c-5.013,5.026-5.013,13.149,0,18.182l37.237,37.236l66.42-66.415
			c5.026-5.031,5.026-13.159,0-18.187c-5.026-5.021-13.155-5.021-18.167,0l-48.253,48.243L96.1,186.319
			C91.079,181.292,82.93,181.292,77.909,186.319z"/>
	</g>
</g>
</svg>
