<?xml version="1.0" encoding="utf-8"?>
<!-- Generator: Adobe Illustrator 16.0.0, SVG Export Plug-In . SVG Version: 6.00 Build 0)  -->
<!DOCTYPE svg PUBLIC "-//W3C//DTD SVG 1.1//EN" "http://www.w3.org/Graphics/SVG/1.1/DTD/svg11.dtd">
<svg version="1.1" id="Layer_1" xmlns="http://www.w3.org/2000/svg" xmlns:xlink="http://www.w3.org/1999/xlink" x="0px" y="0px"
	 width="61.25px" height="61px" viewBox="0 0 61.25 61" enable-background="new 0 0 61.25 61" xml:space="preserve">
<circle fill="#765CA6" cx="30.5" cy="30.51" r="29.5"/>
<g>
	<path fill="#FFFFFF" d="M37.958,11.025l-0.847,8.152c-0.221-0.02-16.322-0.031-16.322-0.031c-3.681,0-6.666,2.982-6.666,6.664
		l0.492,13.69c0,3.68,2.983,6.664,6.666,6.664h0.246c-1.028,0.714-1.7,1.9-1.7,3.244c0,2.182,1.765,3.949,3.944,3.949
		s3.946-1.769,3.946-3.949c0-1.344-0.674-2.53-1.702-3.244h5.586c-1.027,0.714-1.703,1.9-1.703,3.244
		c0,2.182,1.769,3.949,3.945,3.949c2.182,0,3.95-1.769,3.95-3.949c0-1.397-0.731-2.625-1.83-3.326c3.209-0.48,5.67-3.24,5.67-6.582
		l2.322-28.475H37.958z M23.771,50.909c-0.83,0-1.501-0.67-1.501-1.501c0-0.827,0.671-1.499,1.501-1.499
		c0.829,0,1.501,0.672,1.501,1.499C25.272,50.239,24.601,50.909,23.771,50.909z M33.846,50.909c-0.826,0-1.5-0.67-1.5-1.501
		c0-0.827,0.674-1.499,1.5-1.499c0.83,0,1.502,0.672,1.502,1.499C35.348,50.239,34.676,50.909,33.846,50.909z M35.639,36.461
		c0,2.05-1.658,3.708-3.705,3.708H24.32c-2.049,0-3.708-1.658-3.708-3.708l-0.49-7.611c0-2.048,1.659-3.709,3.706-3.709H36.62
		L35.639,36.461z"/>
	<path fill="#FFFFFF" d="M32.551,30.513l-3.157,0.427l-0.425-3.157c-0.057-0.413-0.409-0.706-0.787-0.655l-1.738,0.235
		c-0.377,0.051-0.639,0.427-0.584,0.839l0.427,3.157l-3.156,0.426c-0.414,0.057-0.708,0.406-0.656,0.787l0.234,1.736
		c0.051,0.379,0.427,0.642,0.84,0.586l3.157-0.427l0.426,3.155c0.057,0.414,0.407,0.707,0.787,0.654l1.735-0.231
		c0.38-0.052,0.642-0.429,0.587-0.841l-0.427-3.157l3.155-0.426c0.415-0.056,0.708-0.407,0.656-0.786L33.393,31.1
		C33.338,30.721,32.963,30.458,32.551,30.513z"/>
</g>
<rect x="77.87" y="-17.587" fill="#25B9A1" width="65.755" height="65.375"/>
<polygon fill="#765CA6" points="77.87,28.69 114.877,9.626 114.877,-17.587 77.87,-17.587 "/>
<polygon fill="#F0592B" points="143.625,30.767 77.87,-17.587 143.625,-17.587 "/>
</svg>
