<?xml version="1.0" encoding="utf-8"?>
<!-- Generator: Adobe Illustrator 16.0.0, SVG Export Plug-In . SVG Version: 6.00 Build 0)  -->
<!DOCTYPE svg PUBLIC "-//W3C//DTD SVG 1.1//EN" "http://www.w3.org/Graphics/SVG/1.1/DTD/svg11.dtd">
<svg version="1.1" id="Layer_1" xmlns="http://www.w3.org/2000/svg" xmlns:xlink="http://www.w3.org/1999/xlink" x="0px" y="0px"
	 width="14.917px" height="18.75px" viewBox="0 0 14.917 18.75" enable-background="new 0 0 14.917 18.75" xml:space="preserve">
<g>
	<path fill="#FFFFFF" d="M12.733,1.061L9.739,1.368L8.843,0.654l-3.435,0.35L4.717,1.879L1.642,2.194
		C1.087,2.251,0.68,2.749,0.736,3.306l0.088,0.854l13.108-1.339l-0.088-0.855C13.788,1.409,13.289,1.003,12.733,1.061z"/>
	<path fill="#FFFFFF" d="M1.787,4.537l1.295,12.664c0.056,0.556,0.555,0.962,1.111,0.905l9.236-0.943
		c0.559-0.06,0.966-0.556,0.908-1.113L13.042,3.387L1.787,4.537z M6.02,15.087c0.038,0.382-0.237,0.721-0.618,0.76
		c-0.379,0.037-0.72-0.237-0.759-0.619l-0.83-8.123C3.774,6.725,4.05,6.386,4.432,6.346c0.38-0.038,0.718,0.238,0.756,0.618
		L6.02,15.087z M9.499,14.625c0.053,0.518-0.323,0.98-0.842,1.034c-0.519,0.053-0.979-0.325-1.033-0.842l-0.79-7.739
		C6.782,6.559,7.157,6.096,7.674,6.043c0.521-0.053,0.981,0.323,1.034,0.842L9.499,14.625z M12.468,14.455
		c0.04,0.381-0.237,0.721-0.618,0.76c-0.378,0.04-0.718-0.237-0.756-0.618l-0.832-8.121c-0.038-0.382,0.239-0.721,0.617-0.758
		c0.382-0.04,0.722,0.236,0.76,0.618L12.468,14.455z"/>
</g>
</svg>
