<?xml version="1.0" encoding="utf-8"?>
<!-- Generator: Adobe Illustrator 16.0.0, SVG Export Plug-In . SVG Version: 6.00 Build 0)  -->
<!DOCTYPE svg PUBLIC "-//W3C//DTD SVG 1.1//EN" "http://www.w3.org/Graphics/SVG/1.1/DTD/svg11.dtd">
<svg version="1.1" id="Layer_1" xmlns="http://www.w3.org/2000/svg" xmlns:xlink="http://www.w3.org/1999/xlink" x="0px" y="0px"
	 width="16.083px" height="22.083px" viewBox="0 0 16.083 22.083" enable-background="new 0 0 16.083 22.083" xml:space="preserve">
<path fill="#FFFFFF" d="M12.653,0.334L12.227,4.44c-0.111-0.01-8.221-0.016-8.221-0.016c-1.854,0-3.357,1.502-3.357,3.356
	l0.247,6.893c0,1.854,1.503,3.357,3.357,3.357h0.124c-0.518,0.359-0.856,0.956-0.856,1.634c0,1.099,0.89,1.989,1.986,1.989
	c1.099,0,1.988-0.891,1.988-1.989c0-0.678-0.34-1.274-0.857-1.634h2.813c-0.518,0.359-0.858,0.956-0.858,1.634
	c0,1.099,0.892,1.989,1.987,1.989c1.099,0,1.99-0.891,1.99-1.989c0-0.703-0.368-1.321-0.922-1.674
	c1.617-0.244,2.856-1.633,2.856-3.317l1.168-14.34H12.653z M5.507,20.421c-0.418,0-0.756-0.337-0.756-0.756
	c0-0.416,0.338-0.755,0.756-0.755c0.419,0,0.756,0.339,0.756,0.755C6.263,20.084,5.926,20.421,5.507,20.421z M10.581,20.421
	c-0.416,0-0.755-0.337-0.755-0.756c0-0.416,0.339-0.755,0.755-0.755c0.418,0,0.757,0.339,0.757,0.755
	C11.337,20.084,10.999,20.421,10.581,20.421z"/>
<g>
	<path fill="#F1592B" d="M4.042,10.517c-0.357,0.359-0.357,0.941,0,1.301l2.665,2.665L11.46,9.73c0.36-0.361,0.36-0.942,0-1.303
		c-0.36-0.359-0.941-0.359-1.3,0l-3.453,3.453l-1.363-1.364C4.985,10.156,4.401,10.156,4.042,10.517z"/>
</g>
<rect x="68.176" y="-12.125" fill="#765CA7" width="43.325" height="42.765"/>
<rect x="68.176" y="30.641" fill="#25BAA2" width="43.325" height="42.764"/>
</svg>
