<?xml version="1.0" encoding="utf-8"?>
<!-- Generator: Adobe Illustrator 16.0.0, SVG Export Plug-In . SVG Version: 6.00 Build 0)  -->
<!DOCTYPE svg PUBLIC "-//W3C//DTD SVG 1.1//EN" "http://www.w3.org/Graphics/SVG/1.1/DTD/svg11.dtd">
<svg version="1.1" id="Layer_1" xmlns="http://www.w3.org/2000/svg" xmlns:xlink="http://www.w3.org/1999/xlink" x="0px" y="0px"
	 width="65.167px" height="19.333px" viewBox="0 0 65.167 19.333" enable-background="new 0 0 65.167 19.333" xml:space="preserve">
<path fill="#FFFFFF" d="M63.669,7.866c0,0-3.757-3.338-6.003-5.331c-2.246-1.996-4.569-1.787-4.569-1.787L3.257,0.7
	C0.688,1.072,0.813,3.15,0.813,3.15s-0.064,9.542,0.021,12.396c0.087,2.854,2.492,2.809,2.492,2.809s47.272,0.175,49.758,0.049
	c2.488-0.127,4.728-1.965,4.728-1.965s4.479-4.087,5.903-5.434C65.14,9.657,63.669,7.866,63.669,7.866z M62.16,10.7
	c-0.621,0-1.125-0.504-1.125-1.125S61.539,8.45,62.16,8.45s1.125,0.504,1.125,1.125S62.781,10.7,62.16,10.7z"/>
</svg>
