<?xml version="1.0" encoding="utf-8"?>
<!-- Generator: Adobe Illustrator 16.0.0, SVG Export Plug-In . SVG Version: 6.00 Build 0)  -->
<!DOCTYPE svg PUBLIC "-//W3C//DTD SVG 1.1//EN" "http://www.w3.org/Graphics/SVG/1.1/DTD/svg11.dtd">
<svg version="1.1" id="Layer_1" xmlns="http://www.w3.org/2000/svg" xmlns:xlink="http://www.w3.org/1999/xlink" x="0px" y="0px"
	 width="105px" height="100.333px" viewBox="0 0 105 100.333" enable-background="new 0 0 105 100.333" xml:space="preserve">
<g>
	<path fill="#F1592B" d="M13.343,12.244c0,0,71.648,1.809,83.519,1.666c0,0,1.203,60.593,2.797,67.086
		c0,0,0.832,11.306,2.705,15.202c0,0-41.594,5.097-86.243,0.595c0,0-0.66-30.483-0.624-38.182
		C15.496,58.611,14.257,15.876,13.343,12.244z"/>
	<g>
		<path fill="#765CA7" d="M44.72,1.03c-3.037,1.372-0.391,0.175-1.345,0.607c0.098-0.042-0.896,0.404,0.273-0.121
			c-1.867,0.841-1.389,0.622-1.751,0.788c0.787-0.355-2.131,0.963-2.451,1.105c-1.855,0.839,0.104-0.046-1.546,0.699
			c1.377-0.621-2.075,0.936-1.219,0.549c-1.459,0.66,3.042-1.373,0.585-0.261c-1.581,0.713-2.189,0.985-2.322,1.046
			c-1.076,0.486-3.907,1.767-14.269,6.441c-1.035,0.471-2.046,0.925-3.019,1.366c-0.979,0.441-1.925,0.868-2.83,1.277
			c-0.236,0.104-0.3,0.134-2.324,1.048c-0.949,0.43-2.719,1.228-2.635,1.188c-0.197,0.091,1.002-0.454-1.512,0.684
			c-2.137,0.966-2.624,1.184-2.322,1.049c-0.351,0.157-3.092,1.395-2.448,1.106c0.566-0.257-1.535,0.692-0.024,0.011
			c-1.618,0.728,0.301-0.137-0.877,0.394C0.312,21.69,0.9,22.015,2.347,21.931c-0.826,0.94,1.585,0.401,0.441,1.444
			c1.937-0.349,0.447,0.831,1.295,0.929c-0.617,0.763-0.824,1.319,0.801,1.021c0.808,0.506,0.023,1.64,1.03,1.863
			c2.433-0.763,2.216-0.349,1.483,0.271c-0.347,0.443,0.721,0.222-1.156,1.302c-1.401,1.699,7.906-2.14,7.081-1.765
			c0.797-0.36,0.466-0.213-0.104,0.042c-1.035,0.471,0.83-0.371-1.82,0.825c1.224-0.554-0.631,0.285,2.658-1.2
			c-0.883,0.399,0.535-0.24,1.779-0.803c0.576-0.261,1.746-0.789,1.243-0.562c-0.862,0.39,2.036-0.922,2.044-0.924
			c1.853-0.836,3.854-1.737,5.968-2.694c12.679-5.727,13.046-5.889,13.813-6.236c0.161-0.073,0.403-0.183,2.666-1.204
			c-0.317,0.145,2.697-1.219,2.672-1.205c0.281-0.128,1.936-0.874,0.172-0.08c0.839-0.378,0.192-0.087,1.808-0.814
			c0.687-0.309,5.327-3.072,1.687-1.764c0.462-0.537,0.895-1.068-0.613-0.717c0.923-0.75-1.612,0.064-0.208-0.902
			c0.085-0.203,0.821-0.702,1.624-1.227c0.672-0.471,0.904-0.74,0.14-0.56c0.504-0.392,0.962-0.762,2.511-1.625
			c0.385-0.34-0.492-0.108-0.566-0.237c-0.339-0.176-1.341-0.051-2.121-0.027c0.424-0.846-1.544-0.606-1.268-1.383
			c0.4-0.832-0.286-1.172-0.986-1.5C47.045,1.271,45.038,0.884,44.72,1.03z"/>
		<path fill="#7F475D" d="M25.09,21.682c12.679-5.727,13.046-5.889,13.813-6.236c0.161-0.073,0.403-0.183,2.666-1.204
			c-0.317,0.145,2.697-1.219,2.672-1.205c0.024-0.012,0.063-0.028,0.104-0.049c-10.013-0.229-19.097-0.448-24.807-0.589
			c-0.632,0.286-1.274,0.576-1.882,0.852c-0.979,0.441-1.925,0.868-2.83,1.277c-0.18,0.078-0.26,0.115-1.148,0.518
			c0.219,2.648,0.444,6.788,0.659,11.492c0.401-0.182,0.961-0.435,1.497-0.676c0.576-0.261,1.746-0.789,1.243-0.562
			c-0.862,0.39,2.036-0.922,2.044-0.924C20.975,23.541,22.976,22.639,25.09,21.682z"/>
		<path fill="#400A50" d="M5.83,27.411c1.372-0.431,1.902-0.487,1.971-0.344c0.283-0.354-0.028-0.46-1.887,0.122
			c-1.007-0.224-0.223-1.357-1.03-1.863c-1.007,0.183-1.31,0.039-1.248-0.277c-0.243,0.466-0.056,0.721,1.163,0.497
			C5.607,26.053,4.824,27.187,5.83,27.411z"/>
		<path fill="#400A50" d="M3.925,24.511c0.046-0.064,0.102-0.135,0.158-0.207c-0.816-0.094,0.53-1.187-1.098-0.96l0.001-0.002
			L2.958,23.35c-0.011,0.002-0.019,0-0.03,0.002c0,0,0,0,0,0.002l-0.14,0.021l-0.084,0.22C4.576,23.259,3.247,24.349,3.925,24.511z"
			/>
		<path fill="#400A50" d="M1.083,21.577c-0.298,0.503,0.236,0.619,1.113,0.578c0.027-0.066,0.077-0.138,0.15-0.224
			C1.578,21.974,1.054,21.904,1.083,21.577z"/>
		<path fill="#400A50" d="M3.016,23.126c0.417-0.587-0.837-0.436-0.845-0.856C1.768,22.877,2.993,22.739,3.016,23.126z"/>
		<path fill="#400A50" d="M12.829,27.468c0.01-0.002,0.021-0.008,0.027-0.014C12.853,27.458,12.843,27.464,12.829,27.468z
			 M49.286,10.094c-0.034,0.074-0.062,0.128-0.158,0.211c-0.563,0.524-2.485,1.648-2.91,1.839c-0.954,0.431-1.119,0.506-1.264,0.572
			c-0.249,0.111-0.6,0.269-0.716,0.323c0.025-0.015-2.988,1.347-2.673,1.204c-2.258,1.021-2.502,1.132-2.665,1.204
			c-0.766,0.348-1.132,0.514-13.813,6.234c-2.112,0.957-4.114,1.861-5.969,2.696c-0.007,0.004-1.626,0.733-2.085,0.941
			c-0.278,0.128-0.85,0.387-1.199,0.543c-1.245,0.562-2.664,1.201-1.782,0.806c-3.288,1.482-1.434,0.646-2.656,1.198
			c1.047-0.475,1.388-0.63,1.481-0.67c-0.006,0.002-0.011,0.005-0.012,0.007c0.004-0.003,0.073-0.035,0.35-0.158
			c0.061-0.028,0.118-0.052,0.173-0.078c-0.024,0.01-0.047,0.021-0.07,0.031c0.739-0.336-6.681,2.723-7.195,2.124
			c-1.001,1.476,7.956-2.218,7.144-1.851c0.025-0.013,0.048-0.023,0.07-0.031c0.042-0.021,0.082-0.039,0.119-0.056
			c-0.035,0.017-0.075,0.035-0.119,0.056c-0.053,0.022-0.11,0.048-0.172,0.076c-0.274,0.123-0.346,0.155-0.35,0.158
			c0,0,0.006-0.003,0.014-0.007c-0.096,0.042-0.436,0.195-1.484,0.672c1.223-0.554-0.629,0.282,2.658-1.2
			c-0.881,0.398,0.537-0.242,1.779-0.806c0.354-0.158,0.924-0.415,1.202-0.541c-0.154,0.068-0.178,0.08,0.038-0.019
			c0.198-0.088,0.14-0.064-0.038,0.019c0.458-0.206,2.079-0.939,2.085-0.941c1.853-0.837,3.854-1.743,5.967-2.696
			c12.68-5.723,13.05-5.889,13.814-6.236c0.161-0.07,0.405-0.183,2.666-1.204c-0.318,0.145,2.696-1.219,2.673-1.206
			c0.116-0.052,0.463-0.208,0.713-0.321c-0.007,0.002-0.015,0.004-0.018,0.008c0.107-0.048,0.181-0.081,0.224-0.102
			c-0.047,0.022-0.122,0.054-0.206,0.094c0.148-0.068,0.312-0.142,1.267-0.572c0.498-0.226,3.104-1.76,3.063-2.059
			C49.231,10.357,49.308,10.126,49.286,10.094z M13.462,27.183c0.163-0.071,0.27-0.123,0.278-0.125
			C13.733,27.06,13.647,27.1,13.462,27.183z"/>
		<path fill="#400A50" d="M48.341,9.707c-0.026,0.143-0.071,0.199-0.071,0.199c-0.081,0.143-0.222,0.309-0.362,0.473
			c0.083-0.027,0.16-0.055,0.234-0.081c0.076-0.104,0.13-0.201,0.145-0.276C48.286,10.021,48.322,9.89,48.341,9.707z"/>
		<path fill="#400A50" d="M49.327,6.976c-0.031,0.099-0.086,0.125-0.123,0.172C49.098,7.25,48.928,7.38,48.71,7.533
			c-0.803,0.524-1.539,1.023-1.624,1.227c-0.409,0.281-0.484,0.412-0.404,0.473c0.066-0.064,0.171-0.146,0.323-0.252
			c0.084-0.203,0.821-0.7,1.622-1.228c0.286-0.198,0.492-0.362,0.576-0.47c0,0,0,0,0-0.003C49.28,7.199,49.306,7.105,49.327,6.976z"
			/>
		<path fill="#400A50" d="M51.454,5.232c-0.021,0.046-0.155,0.149-0.155,0.149c-1.497,0.842-1.953,1.208-2.449,1.592
			c0.109-0.022,0.196-0.04,0.266-0.049c0.421-0.313,0.964-0.688,2.162-1.355c0.032-0.032,0.059-0.057,0.074-0.077
			C51.378,5.472,51.479,5.174,51.454,5.232z"/>
	</g>
</g>
</svg>
