<?xml version="1.0" encoding="utf-8"?>
<!-- Generator: Adobe Illustrator 16.0.0, SVG Export Plug-In . SVG Version: 6.00 Build 0)  -->
<!DOCTYPE svg PUBLIC "-//W3C//DTD SVG 1.1//EN" "http://www.w3.org/Graphics/SVG/1.1/DTD/svg11.dtd">
<svg version="1.1" id="Layer_1" xmlns="http://www.w3.org/2000/svg" xmlns:xlink="http://www.w3.org/1999/xlink" x="0px" y="0px"
	 width="318px" height="54.5px" viewBox="0 0 318 54.5" enable-background="new 0 0 318 54.5" xml:space="preserve">
<g>
	<path fill="#FFFFFF" d="M225.25,26.735h-0.441c-0.533,0-0.898,0.115-1.094,0.345s-0.293,0.677-0.293,1.34v0.483h3.215v-0.381
		c0-0.718-0.094-1.196-0.281-1.433C226.166,26.853,225.799,26.735,225.25,26.735z"/>
	<path fill="#FFFFFF" d="M236.504,27.28h-0.4c-0.479,0-0.809,0.127-0.99,0.38s-0.273,0.802-0.273,1.644v1.664
		c0,0.836,0.092,1.38,0.273,1.634c0.182,0.253,0.512,0.38,0.99,0.38h0.4c0.48,0,0.811-0.127,0.992-0.38
		c0.182-0.254,0.271-0.798,0.271-1.634v-1.664c0-0.842-0.09-1.391-0.271-1.644S236.984,27.28,236.504,27.28z"/>
	<path fill="#FFFFFF" d="M203.359,30.854h-0.944c-0.35,0-0.612,0.081-0.791,0.241c-0.179,0.161-0.267,0.399-0.267,0.714v0.565
		c0,0.315,0.088,0.552,0.267,0.708c0.179,0.158,0.441,0.237,0.791,0.237h0.944c0.343,0,0.6-0.079,0.771-0.237
		c0.172-0.156,0.257-0.393,0.257-0.708v-0.565c0-0.321-0.085-0.561-0.257-0.719C203.958,30.932,203.702,30.854,203.359,30.854z"/>
	<path fill="#FFFFFF" d="M247.398,27.157h-0.42c-0.521,0-0.869,0.116-1.043,0.349c-0.176,0.233-0.262,0.818-0.262,1.757v1.726
		c0,0.938,0.086,1.522,0.262,1.752c0.174,0.229,0.521,0.343,1.043,0.343h0.42c0.514,0,0.857-0.112,1.027-0.338
		c0.172-0.227,0.258-0.813,0.258-1.757v-1.726c0-0.952-0.086-1.541-0.258-1.768C248.256,27.27,247.912,27.157,247.398,27.157z"/>
	<path fill="#FFFFFF" d="M107.117,27.28h-0.421c-0.5,0-0.846,0.127-1.037,0.38c-0.192,0.253-0.288,0.802-0.288,1.644v1.664
		c0,0.842,0.096,1.388,0.288,1.639c0.191,0.25,0.538,0.375,1.037,0.375h0.421c0.5,0,0.845-0.127,1.037-0.38
		c0.191-0.254,0.288-0.798,0.288-1.634v-1.664c0-0.842-0.097-1.391-0.288-1.644C107.962,27.407,107.616,27.28,107.117,27.28z"/>
	<path fill="#FFFFFF" d="M96.14,27.157h-0.421c-0.521,0-0.868,0.116-1.042,0.349c-0.175,0.233-0.262,0.818-0.262,1.757v1.726
		c0,0.938,0.086,1.522,0.262,1.752c0.174,0.229,0.521,0.343,1.042,0.343h0.421c0.514,0,0.856-0.112,1.027-0.338
		c0.172-0.227,0.257-0.813,0.257-1.757v-1.726c0-0.952-0.085-1.541-0.257-1.768C96.996,27.27,96.653,27.157,96.14,27.157z"/>
	<path fill="#FFFFFF" d="M258.314,27.157h-0.422c-0.52,0-0.867,0.116-1.043,0.349c-0.174,0.233-0.262,0.818-0.262,1.757v1.726
		c0,0.938,0.088,1.522,0.262,1.752c0.176,0.229,0.523,0.343,1.043,0.343h0.422c0.514,0,0.855-0.112,1.027-0.338
		c0.172-0.227,0.256-0.813,0.256-1.757v-1.726c0-0.952-0.084-1.541-0.256-1.768C259.17,27.27,258.828,27.157,258.314,27.157z"/>
	<path fill="#FFFFFF" d="M299.957,1.974H18.499C9.662,1.974,2.5,9.136,2.5,17.971v18.341c0,8.836,7.162,15.998,15.999,15.998
		h281.458c8.834,0,15.998-7.162,15.998-15.998V17.971C315.955,9.136,308.791,1.974,299.957,1.974z M62.592,21.399l-0.64,4.908
		h-4.027v14.825h-6.281V26.307h-2.898v-4.958h2.945v-4.565c0,0,0.05-2.797,1.866-3.977c1.816-1.179,3.388-1.276,3.388-1.276h5.597
		l0.05,5.253h-3.338c0,0-1.329,0.197-1.329,1.13c0,0.934,0,3.485,0,3.485H62.592z M90.7,35.528H79.72V20.233h4.14v11.741h6.84
		V35.528z M100.938,31.234c0,1.645-0.32,2.795-0.96,3.452c-0.641,0.657-1.751,0.985-3.333,0.985h-1.448
		c-1.583,0-2.693-0.328-3.333-0.985c-0.64-0.657-0.96-1.808-0.96-3.452v-2.229c0-1.637,0.32-2.785,0.96-3.446
		c0.641-0.661,1.751-0.991,3.333-0.991h1.448c1.582,0,2.693,0.33,3.333,0.991c0.64,0.661,0.96,1.81,0.96,3.446V31.234z
		 M111.729,34.83c0,1.109-0.079,1.927-0.236,2.45s-0.424,0.97-0.801,1.34c-0.322,0.315-0.769,0.569-1.34,0.761
		c-0.572,0.191-1.17,0.287-1.793,0.287h-1.171c-1.322,0-2.323-0.236-3.005-0.708c-0.681-0.473-1.021-1.168-1.021-2.086v-0.605h3.307
		c0,0.349,0.075,0.594,0.227,0.734c0.15,0.14,0.417,0.21,0.801,0.21h0.504c0.479,0,0.806-0.123,0.981-0.37
		c0.174-0.246,0.262-0.738,0.262-1.479v-1.582c-0.247,0.521-0.614,0.899-1.099,1.135c-0.486,0.236-1.151,0.354-1.993,0.354
		c-1.192,0-2.068-0.33-2.629-0.991s-0.842-1.696-0.842-3.106v-2.168c0-1.526,0.289-2.648,0.868-3.364
		c0.579-0.715,1.485-1.073,2.717-1.073c0.685,0,1.271,0.127,1.756,0.38c0.486,0.253,0.847,0.623,1.08,1.109v-1.346h3.43V34.83z
		 M123.337,35.528h-3.492V24.711h3.492V35.528z M123.337,22.924h-3.492v-2.691h3.492V22.924z M135.043,35.528h-3.43v-6.266
		c0-0.788-0.091-1.297-0.272-1.531c-0.182-0.231-0.604-0.349-1.269-0.349c-0.527,0-0.89,0.128-1.089,0.385
		c-0.199,0.257-0.298,0.823-0.298,1.7v6.061h-3.43V24.711h3.328l-0.041,1.541c0.308-0.596,0.704-1.025,1.187-1.289
		s1.118-0.396,1.905-0.396c1.287,0,2.178,0.275,2.671,0.827c0.493,0.551,0.739,1.586,0.739,3.106V35.528z M156.123,35.528h-4.715
		l-1.366-7.488l-1.346,7.488H143.9l-1.767-10.816h3.451l0.925,8.084l1.5-8.084h4.077l1.51,8.043l0.883-8.043h3.43L156.123,35.528z
		 M162.282,35.528h-3.492V24.711h3.492V35.528z M162.282,22.924h-3.492v-2.691h3.492V22.924z M172.787,32.313
		c0,1.15-0.27,1.998-0.807,2.542c-0.538,0.545-1.378,0.816-2.521,0.816h-1.829c-0.637,0-1.184-0.089-1.643-0.267
		s-0.828-0.452-1.109-0.821c-0.205-0.268-0.351-0.572-0.437-0.915c-0.086-0.342-0.129-0.846-0.129-1.51v-0.585v-4.355h-1.243v-2.507
		h1.243v-2.074h3.431v2.074h4.581v2.507h-4.581v4.416c0,0.658,0.073,1.076,0.222,1.254c0.146,0.179,0.442,0.267,0.889,0.267
		c0.417,0,0.701-0.078,0.852-0.236c0.15-0.157,0.227-0.465,0.227-0.924V31.09h2.855V32.313z M183.732,35.528h-3.431v-6.266
		c0-0.788-0.091-1.297-0.272-1.531c-0.182-0.231-0.604-0.349-1.268-0.349c-0.528,0-0.891,0.128-1.09,0.385
		c-0.198,0.257-0.298,0.823-0.298,1.7v6.061h-3.43V20.233h3.43v6.02c0.151-0.555,0.475-0.974,0.971-1.259
		c0.497-0.284,1.155-0.426,1.978-0.426c1.287,0,2.178,0.275,2.671,0.827c0.493,0.551,0.739,1.586,0.739,3.106V35.528z
		 M197.765,22.76h-0.802c-0.514,0-0.883,0.072-1.108,0.216c-0.227,0.144-0.34,0.38-0.34,0.708v1.027h2.25v2.63h-2.25v8.187h-3.492
		v-8.187h-1.182v-2.63h1.182c-0.006-0.088-0.012-0.189-0.016-0.303c-0.003-0.113-0.005-0.275-0.005-0.488
		c0-1.28,0.259-2.215,0.775-2.805c0.518-0.588,1.337-0.883,2.46-0.883h2.527V22.76z M207.859,35.528h-3.452v-0.986
		c-0.287,0.384-0.63,0.668-1.027,0.853c-0.396,0.186-0.859,0.277-1.386,0.277h-1.243c-0.925,0-1.637-0.26-2.137-0.78
		c-0.5-0.52-0.75-1.264-0.75-2.229v-1.007c0-0.931,0.284-1.646,0.854-2.146c0.567-0.5,1.379-0.75,2.434-0.75h0.945
		c0.492,0,0.938,0.084,1.335,0.252s0.723,0.413,0.976,0.735v-2.106c0-0.336-0.073-0.577-0.22-0.724
		c-0.148-0.147-0.39-0.222-0.725-0.222h-0.585c-0.418,0-0.702,0.058-0.854,0.17c-0.15,0.112-0.226,0.316-0.226,0.61l-3.431-0.01
		c0.013-1.034,0.301-1.775,0.862-2.224s1.497-0.673,2.805-0.673h1.634c1.52,0,2.599,0.271,3.234,0.812
		c0.637,0.541,0.956,1.455,0.956,2.742V35.528z M218.188,34.767c-0.657,0.604-1.766,0.904-3.328,0.904h-1.448
		c-1.582,0-2.692-0.328-3.333-0.985s-0.961-1.808-0.961-3.452v-2.229c0-1.637,0.32-2.785,0.961-3.446s1.751-0.991,3.333-0.991h1.448
		c1.548,0,2.65,0.298,3.308,0.894c0.658,0.596,0.986,1.589,0.986,2.979v0.287h-3.452v-0.103c0-0.555-0.095-0.938-0.282-1.151
		c-0.188-0.211-0.529-0.317-1.022-0.317h-0.463c-0.52,0-0.867,0.116-1.042,0.349c-0.175,0.233-0.262,0.818-0.262,1.757v1.726
		c0,0.938,0.087,1.522,0.262,1.752s0.522,0.343,1.042,0.343h0.463c0.499,0,0.842-0.11,1.027-0.333
		c0.185-0.223,0.277-0.635,0.277-1.238v-0.257h3.452c0,0.056,0.004,0.139,0.01,0.252s0.01,0.196,0.01,0.252
		C219.174,33.163,218.846,34.166,218.188,34.767z M230.008,30.71h-6.586v1.325c0,0.486,0.102,0.828,0.303,1.027
		c0.203,0.198,0.557,0.297,1.064,0.297h0.441c0.473,0,0.805-0.081,0.996-0.246c0.191-0.164,0.309-0.462,0.35-0.893h3.389
		c-0.082,1.225-0.455,2.107-1.119,2.645s-1.709,0.806-3.133,0.806h-1.447c-1.584,0-2.693-0.328-3.334-0.985
		s-0.961-1.808-0.961-3.452v-2.229c0-1.637,0.32-2.785,0.961-3.446s1.75-0.991,3.334-0.991h1.447c1.582,0,2.693,0.33,3.334,0.991
		s0.961,1.81,0.961,3.446V30.71z M241.26,31.234c0,1.527-0.287,2.649-0.863,3.364c-0.574,0.716-1.479,1.073-2.711,1.073
		c-0.732,0-1.338-0.134-1.818-0.4c-0.479-0.267-0.869-0.695-1.17-1.284l0.041,1.541h-3.328V20.233h3.43v5.824
		c0.232-0.486,0.59-0.856,1.068-1.109s1.064-0.38,1.756-0.38c1.234,0,2.141,0.358,2.723,1.073c0.582,0.716,0.873,1.838,0.873,3.364
		V31.234z M252.197,31.234c0,1.645-0.32,2.795-0.961,3.452s-1.752,0.985-3.334,0.985h-1.447c-1.582,0-2.693-0.328-3.334-0.985
		s-0.961-1.808-0.961-3.452v-2.229c0-1.637,0.32-2.785,0.961-3.446s1.752-0.991,3.334-0.991h1.447c1.582,0,2.693,0.33,3.334,0.991
		s0.961,1.81,0.961,3.446V31.234z M263.111,31.234c0,1.645-0.32,2.795-0.961,3.452s-1.75,0.985-3.332,0.985h-1.449
		c-1.582,0-2.693-0.328-3.334-0.985c-0.639-0.657-0.959-1.808-0.959-3.452v-2.229c0-1.637,0.32-2.785,0.959-3.446
		c0.641-0.661,1.752-0.991,3.334-0.991h1.449c1.582,0,2.691,0.33,3.332,0.991s0.961,1.81,0.961,3.446V31.234z M270.791,35.528
		l-2.568-4.334h-0.258v4.334h-3.43V20.233h3.43v8.546h0.258l2.105-4.067h3.893l-2.947,5.198l3.533,5.618H270.791z"/>
</g>
</svg>
