<?xml version="1.0" encoding="utf-8"?>
<!-- Generator: Adobe Illustrator 16.0.0, SVG Export Plug-In . SVG Version: 6.00 Build 0)  -->
<!DOCTYPE svg PUBLIC "-//W3C//DTD SVG 1.1//EN" "http://www.w3.org/Graphics/SVG/1.1/DTD/svg11.dtd">
<svg version="1.1" id="Layer_1" xmlns="http://www.w3.org/2000/svg" xmlns:xlink="http://www.w3.org/1999/xlink" x="0px" y="0px"
	 width="318.334px" height="55px" viewBox="0 0 318.334 55" enable-background="new 0 0 318.334 55" xml:space="preserve">
<g>
	<path fill="none" d="M209.435,26.159c-0.25-0.522-0.637-0.92-1.159-1.192c-0.523-0.272-1.152-0.408-1.889-0.408
		c-1.325,0-2.299,0.385-2.921,1.153c-0.622,0.77-0.933,1.976-0.933,3.617v2.33c0,1.517,0.302,2.63,0.905,3.34
		c0.604,0.711,1.546,1.065,2.827,1.065c0.905,0,1.619-0.127,2.142-0.381c0.523-0.254,0.917-0.66,1.182-1.22v1.7
		c0,0.795-0.094,1.325-0.281,1.59c-0.188,0.266-0.539,0.397-1.055,0.397h-0.541c-0.412,0-0.699-0.075-0.861-0.226
		c-0.162-0.151-0.243-0.414-0.243-0.79h-3.556v0.651c0,0.986,0.366,1.734,1.099,2.242s1.81,0.762,3.23,0.762h1.259
		c0.67,0,1.313-0.104,1.927-0.31s1.095-0.479,1.441-0.816c0.404-0.397,0.691-0.878,0.861-1.441c0.169-0.563,0.254-1.441,0.254-2.634
		V24.713h-3.688V26.159z M209.589,31.438c0,0.898-0.103,1.484-0.309,1.756c-0.206,0.272-0.578,0.409-1.115,0.409h-0.453
		c-0.537,0-0.909-0.135-1.115-0.403s-0.31-0.855-0.31-1.762v-1.788c0-0.906,0.104-1.495,0.31-1.768
		c0.206-0.271,0.578-0.408,1.115-0.408h0.453c0.537,0,0.909,0.137,1.115,0.408c0.206,0.272,0.309,0.861,0.309,1.768V31.438z"/>
	<path fill="none" d="M190.683,24.559c-0.883,0-1.592,0.152-2.125,0.458c-0.534,0.306-0.882,0.757-1.044,1.353v-6.471h-3.688v16.442
		h3.688v-6.515c0-0.942,0.106-1.552,0.32-1.828c0.213-0.276,0.604-0.414,1.17-0.414c0.715,0,1.169,0.125,1.364,0.376
		c0.195,0.25,0.293,0.799,0.293,1.645v6.736h3.688v-7.553c0-1.635-0.265-2.748-0.795-3.341S192.067,24.559,190.683,24.559z"/>
	<path fill="none" d="M179.512,32.542c0,0.493-0.081,0.825-0.243,0.994s-0.468,0.254-0.916,0.254c-0.479,0-0.798-0.096-0.956-0.287
		s-0.237-0.641-0.237-1.348v-4.748h4.926v-2.694h-4.926v-2.23h-3.688v2.23h-1.337v2.694h1.337v4.683v0.629
		c0,0.714,0.046,1.255,0.138,1.623s0.248,0.696,0.47,0.983c0.302,0.397,0.699,0.691,1.192,0.883s1.082,0.287,1.767,0.287h1.966
		c1.229,0,2.133-0.292,2.711-0.878c0.577-0.585,0.866-1.496,0.866-2.732V31.57h-3.069V32.542z"/>
	<rect x="167.535" y="24.713" fill="none" width="3.755" height="11.628"/>
	<rect x="167.535" y="19.898" fill="none" width="3.755" height="2.894"/>
	<rect x="125.668" y="19.898" fill="none" width="3.755" height="2.894"/>
	<polygon fill="none" points="161.952,33.359 160.329,24.713 155.945,24.713 154.333,33.403 153.338,24.713 149.628,24.713 
		151.528,36.341 156.685,36.341 158.131,28.291 159.6,36.341 164.668,36.341 166.59,24.713 162.902,24.713 	"/>
	<path fill="none" d="M113.254,26.159c-0.25-0.522-0.637-0.92-1.159-1.192c-0.523-0.272-1.152-0.408-1.889-0.408
		c-1.325,0-2.299,0.385-2.921,1.153c-0.622,0.77-0.933,1.976-0.933,3.617v2.33c0,1.517,0.302,2.63,0.905,3.34
		c0.604,0.711,1.546,1.065,2.827,1.065c0.905,0,1.619-0.127,2.142-0.381c0.523-0.254,0.917-0.66,1.182-1.22v1.7
		c0,0.795-0.094,1.325-0.281,1.59c-0.188,0.266-0.539,0.397-1.055,0.397h-0.541c-0.412,0-0.699-0.075-0.861-0.226
		c-0.162-0.151-0.243-0.414-0.243-0.79h-3.556v0.651c0,0.986,0.366,1.734,1.099,2.242s1.81,0.762,3.23,0.762h1.259
		c0.67,0,1.313-0.104,1.927-0.31s1.095-0.479,1.441-0.816c0.404-0.397,0.691-0.878,0.861-1.441c0.169-0.563,0.254-1.441,0.254-2.634
		V24.713h-3.688V26.159z M113.409,31.438c0,0.898-0.103,1.484-0.309,1.756c-0.206,0.272-0.578,0.409-1.115,0.409h-0.453
		c-0.537,0-0.909-0.135-1.115-0.403s-0.31-0.855-0.31-1.762v-1.788c0-0.906,0.104-1.495,0.31-1.768
		c0.206-0.271,0.578-0.408,1.115-0.408h0.453c0.537,0,0.909,0.137,1.115,0.408c0.206,0.272,0.309,0.861,0.309,1.768V31.438z"/>
	<path fill="none" d="M138.34,24.559c-0.847,0-1.529,0.142-2.048,0.425c-0.52,0.283-0.944,0.745-1.275,1.386l0.044-1.656h-3.578
		v11.628h3.688v-6.515c0-0.942,0.106-1.552,0.32-1.828c0.213-0.276,0.604-0.414,1.17-0.414c0.715,0,1.169,0.125,1.364,0.376
		c0.195,0.25,0.293,0.799,0.293,1.645v6.736h3.688v-7.553c0-1.635-0.265-2.748-0.795-3.341S139.724,24.559,138.34,24.559z"/>
	<rect x="125.668" y="24.713" fill="none" width="3.755" height="11.628"/>
	<rect x="250.728" y="19.898" fill="none" width="3.754" height="16.442"/>
	<path fill="none" d="M100.726,24.559h-1.557c-1.701,0-2.896,0.355-3.584,1.065c-0.688,0.711-1.032,1.945-1.032,3.705v2.396
		c0,1.768,0.344,3.004,1.032,3.711c0.688,0.706,1.883,1.06,3.584,1.06h1.557c1.7,0,2.895-0.354,3.583-1.06
		c0.688-0.707,1.032-1.943,1.032-3.711v-2.396c0-1.76-0.344-2.994-1.032-3.705C103.621,24.914,102.426,24.559,100.726,24.559z
		 M101.565,31.46c0,1.016-0.092,1.646-0.275,1.889c-0.185,0.242-0.553,0.364-1.104,0.364h-0.453c-0.56,0-0.933-0.123-1.121-0.37
		c-0.188-0.246-0.281-0.874-0.281-1.883v-1.855c0-1.008,0.094-1.638,0.281-1.888c0.188-0.25,0.562-0.376,1.121-0.376h0.453
		c0.552,0,0.92,0.122,1.104,0.364c0.184,0.243,0.275,0.877,0.275,1.899V31.46z"/>
	<path fill="none" d="M244.979,26.159c-0.25-0.522-0.637-0.92-1.159-1.192c-0.523-0.272-1.152-0.408-1.889-0.408
		c-1.325,0-2.299,0.385-2.921,1.153c-0.622,0.77-0.933,1.976-0.933,3.617v2.33c0,1.517,0.302,2.63,0.905,3.34
		c0.604,0.711,1.546,1.065,2.827,1.065c0.905,0,1.619-0.127,2.142-0.381c0.523-0.254,0.917-0.66,1.182-1.22v1.7
		c0,0.795-0.094,1.325-0.281,1.59c-0.188,0.266-0.539,0.397-1.055,0.397h-0.541c-0.412,0-0.699-0.075-0.861-0.226
		c-0.162-0.151-0.243-0.414-0.243-0.79h-3.556v0.651c0,0.986,0.366,1.734,1.099,2.242s1.81,0.762,3.23,0.762h1.259
		c0.67,0,1.313-0.104,1.927-0.31s1.095-0.479,1.441-0.816c0.404-0.397,0.691-0.878,0.861-1.441c0.169-0.563,0.254-1.441,0.254-2.634
		V24.713h-3.688V26.159z M245.133,31.438c0,0.898-0.103,1.484-0.309,1.756c-0.206,0.272-0.578,0.409-1.115,0.409h-0.453
		c-0.537,0-0.909-0.135-1.115-0.403s-0.31-0.855-0.31-1.762v-1.788c0-0.906,0.104-1.495,0.31-1.768
		c0.206-0.271,0.578-0.408,1.115-0.408h0.453c0.537,0,0.909,0.137,1.115,0.408c0.206,0.272,0.309,0.861,0.309,1.768V31.438z"/>
	<polygon fill="none" points="86.982,19.898 82.532,19.898 82.532,36.341 94.336,36.341 94.336,32.521 86.982,32.521 	"/>
	<path fill="none" d="M262.009,24.559h-1.556c-1.701,0-2.896,0.355-3.584,1.065c-0.688,0.711-1.032,1.945-1.032,3.705v2.396
		c0,1.768,0.344,3.004,1.032,3.711c0.688,0.706,1.883,1.06,3.584,1.06h1.556c1.531,0,2.654-0.288,3.369-0.866
		c0.713-0.578,1.115-1.526,1.203-2.844h-3.645c-0.045,0.464-0.17,0.784-0.375,0.961c-0.207,0.177-0.563,0.265-1.072,0.265h-0.475
		c-0.544,0-0.925-0.106-1.142-0.32c-0.218-0.213-0.326-0.581-0.326-1.104v-1.424h7.078v-1.833c0-1.76-0.344-2.994-1.031-3.705
		C264.903,24.914,263.71,24.559,262.009,24.559z M263.003,29.219h-3.457v-0.52c0-0.714,0.105-1.194,0.315-1.441
		c0.209-0.246,0.602-0.369,1.176-0.369h0.475c0.588,0,0.984,0.127,1.188,0.381c0.201,0.254,0.303,0.768,0.303,1.54V29.219z"/>
	<path fill="none" d="M220.716,24.559h-1.557c-1.701,0-2.896,0.355-3.584,1.065c-0.688,0.711-1.032,1.945-1.032,3.705v2.396
		c0,1.768,0.344,3.004,1.032,3.711c0.688,0.706,1.883,1.06,3.584,1.06h1.557c1.7,0,2.895-0.354,3.583-1.06
		c0.688-0.707,1.032-1.943,1.032-3.711v-2.396c0-1.76-0.344-2.994-1.032-3.705C223.611,24.914,222.417,24.559,220.716,24.559z
		 M221.555,31.46c0,1.016-0.092,1.646-0.275,1.889c-0.185,0.242-0.553,0.364-1.104,0.364h-0.453c-0.56,0-0.933-0.123-1.121-0.37
		c-0.188-0.246-0.281-0.874-0.281-1.883v-1.855c0-1.008,0.094-1.638,0.281-1.888c0.188-0.25,0.562-0.376,1.121-0.376h0.453
		c0.552,0,0.92,0.122,1.104,0.364c0.184,0.243,0.275,0.877,0.275,1.899V31.46z"/>
	<path fill="none" d="M232.451,24.559h-1.557c-1.701,0-2.896,0.355-3.584,1.065c-0.688,0.711-1.032,1.945-1.032,3.705v2.396
		c0,1.768,0.344,3.004,1.032,3.711c0.688,0.706,1.883,1.06,3.584,1.06h1.557c1.7,0,2.895-0.354,3.583-1.06
		c0.688-0.707,1.032-1.943,1.032-3.711v-2.396c0-1.76-0.344-2.994-1.032-3.705C235.345,24.914,234.151,24.559,232.451,24.559z
		 M233.29,31.46c0,1.016-0.092,1.646-0.275,1.889c-0.185,0.242-0.553,0.364-1.104,0.364h-0.453c-0.56,0-0.933-0.123-1.121-0.37
		c-0.188-0.246-0.281-0.874-0.281-1.883v-1.855c0-1.008,0.094-1.638,0.281-1.888c0.188-0.25,0.562-0.376,1.121-0.376h0.453
		c0.552,0,0.92,0.122,1.104,0.364c0.184,0.243,0.275,0.877,0.275,1.899V31.46z"/>
	<path fill="#FFFFFF" d="M231.91,27.341h-0.453c-0.56,0-0.933,0.126-1.121,0.376c-0.188,0.25-0.281,0.88-0.281,1.888v1.855
		c0,1.009,0.094,1.637,0.281,1.883c0.188,0.247,0.562,0.37,1.121,0.37h0.453c0.552,0,0.92-0.122,1.104-0.364
		c0.184-0.243,0.275-0.873,0.275-1.889v-1.855c0-1.022-0.092-1.656-0.275-1.899C232.83,27.463,232.461,27.341,231.91,27.341z"/>
	<path fill="#FFFFFF" d="M208.166,27.474h-0.453c-0.537,0-0.909,0.137-1.115,0.408c-0.206,0.272-0.31,0.861-0.31,1.768v1.788
		c0,0.906,0.104,1.493,0.31,1.762s0.578,0.403,1.115,0.403h0.453c0.537,0,0.909-0.137,1.115-0.409
		c0.206-0.271,0.309-0.857,0.309-1.756v-1.788c0-0.906-0.103-1.495-0.309-1.768C209.075,27.61,208.703,27.474,208.166,27.474z"/>
	<path fill="#FFFFFF" d="M220.175,27.341h-0.453c-0.56,0-0.933,0.126-1.121,0.376c-0.188,0.25-0.281,0.88-0.281,1.888v1.855
		c0,1.009,0.094,1.637,0.281,1.883c0.188,0.247,0.562,0.37,1.121,0.37h0.453c0.552,0,0.92-0.122,1.104-0.364
		c0.184-0.243,0.275-0.873,0.275-1.889v-1.855c0-1.022-0.092-1.656-0.275-1.899C221.095,27.463,220.727,27.341,220.175,27.341z"/>
	<path fill="#FFFFFF" d="M100.185,27.341h-0.453c-0.56,0-0.933,0.126-1.121,0.376c-0.188,0.25-0.281,0.88-0.281,1.888v1.855
		c0,1.009,0.094,1.637,0.281,1.883c0.188,0.247,0.562,0.37,1.121,0.37h0.453c0.552,0,0.92-0.122,1.104-0.364
		c0.184-0.243,0.275-0.873,0.275-1.889v-1.855c0-1.022-0.092-1.656-0.275-1.899C101.105,27.463,100.737,27.341,100.185,27.341z"/>
	<path fill="#FFFFFF" d="M111.985,27.474h-0.453c-0.537,0-0.909,0.137-1.115,0.408c-0.206,0.272-0.31,0.861-0.31,1.768v1.788
		c0,0.906,0.104,1.493,0.31,1.762s0.578,0.403,1.115,0.403h0.453c0.537,0,0.909-0.137,1.115-0.409
		c0.206-0.271,0.309-0.857,0.309-1.756v-1.788c0-0.906-0.103-1.495-0.309-1.768C112.894,27.61,112.522,27.474,111.985,27.474z"/>
	<path fill="#FFFFFF" d="M243.709,27.474h-0.453c-0.537,0-0.909,0.137-1.115,0.408c-0.206,0.272-0.31,0.861-0.31,1.768v1.788
		c0,0.906,0.104,1.493,0.31,1.762s0.578,0.403,1.115,0.403h0.453c0.537,0,0.909-0.137,1.115-0.409
		c0.206-0.271,0.309-0.857,0.309-1.756v-1.788c0-0.906-0.103-1.495-0.309-1.768C244.619,27.61,244.247,27.474,243.709,27.474z"/>
	<path fill="#FFFFFF" d="M300.429,2.61H18.97c-8.837,0-15.999,7.162-15.999,15.997v18.341c0,8.836,7.162,15.998,15.999,15.998
		h281.458c8.834,0,15.998-7.162,15.998-15.998V18.607C316.427,9.772,309.263,2.61,300.429,2.61z M69.902,38.754
		c-2.359,2.178-5.587,3.454-9.437,3.454c-5.573,0-10.396-3.194-12.741-7.854c-0.966-1.926-1.517-4.104-1.517-6.403
		c0-2.301,0.551-4.479,1.517-6.403c2.346-4.66,7.168-7.855,12.741-7.855c3.844,0,7.071,1.413,9.54,3.714l-4.09,4.09
		c-1.477-1.413-3.356-2.133-5.45-2.133c-3.713,0-6.856,2.508-7.978,5.878c-0.285,0.855-0.447,1.77-0.447,2.71
		c0,0.939,0.162,1.854,0.447,2.708c1.121,3.37,4.265,5.879,7.978,5.879c1.918,0,3.552-0.506,4.828-1.361
		c1.51-1.011,2.515-2.521,2.846-4.303h-7.674v-5.516h13.429c0.168,0.933,0.259,1.905,0.259,2.916
		C74.153,32.617,72.598,36.271,69.902,38.754z M94.336,36.341H82.532V19.898h4.45v12.622h7.354V36.341z M105.341,31.725
		c0,1.768-0.344,3.004-1.032,3.711c-0.688,0.706-1.883,1.06-3.583,1.06h-1.557c-1.701,0-2.896-0.354-3.584-1.06
		c-0.688-0.707-1.032-1.943-1.032-3.711v-2.396c0-1.76,0.344-2.994,1.032-3.705c0.688-0.71,1.883-1.065,3.584-1.065h1.557
		c1.7,0,2.895,0.355,3.583,1.065c0.688,0.711,1.032,1.945,1.032,3.705V31.725z M116.943,35.59c0,1.192-0.085,2.07-0.254,2.634
		c-0.17,0.563-0.457,1.044-0.861,1.441c-0.347,0.338-0.827,0.61-1.441,0.816s-1.257,0.31-1.927,0.31h-1.259
		c-1.421,0-2.498-0.254-3.23-0.762s-1.099-1.256-1.099-2.242v-0.651h3.556c0,0.376,0.081,0.639,0.243,0.79
		c0.162,0.15,0.449,0.226,0.861,0.226h0.541c0.516,0,0.867-0.132,1.055-0.397c0.188-0.265,0.281-0.795,0.281-1.59v-1.7
		c-0.265,0.56-0.658,0.966-1.182,1.22c-0.522,0.254-1.236,0.381-2.142,0.381c-1.281,0-2.224-0.354-2.827-1.065
		c-0.604-0.71-0.905-1.823-0.905-3.34v-2.33c0-1.642,0.311-2.848,0.933-3.617c0.622-0.769,1.596-1.153,2.921-1.153
		c0.736,0,1.365,0.136,1.889,0.408c0.522,0.272,0.909,0.67,1.159,1.192v-1.446h3.688V35.59z M129.423,36.341h-3.755V24.713h3.755
		V36.341z M129.423,22.792h-3.755v-2.894h3.755V22.792z M142.006,36.341h-3.688v-6.736c0-0.846-0.098-1.395-0.293-1.645
		c-0.195-0.251-0.649-0.376-1.364-0.376c-0.566,0-0.957,0.138-1.17,0.414c-0.214,0.276-0.32,0.886-0.32,1.828v6.515h-3.688V24.713
		h3.578l-0.044,1.656c0.331-0.641,0.756-1.103,1.275-1.386c0.519-0.283,1.201-0.425,2.048-0.425c1.384,0,2.341,0.296,2.871,0.889
		s0.795,1.706,0.795,3.341V36.341z M164.668,36.341H159.6l-1.469-8.05l-1.446,8.05h-5.157l-1.899-11.628h3.71l0.994,8.69l1.612-8.69
		h4.384l1.623,8.646l0.95-8.646h3.688L164.668,36.341z M171.29,36.341h-3.755V24.713h3.755V36.341z M171.29,22.792h-3.755v-2.894
		h3.755V22.792z M182.582,32.885c0,1.236-0.289,2.147-0.866,2.732c-0.578,0.586-1.481,0.878-2.711,0.878h-1.966
		c-0.685,0-1.273-0.096-1.767-0.287s-0.891-0.485-1.192-0.883c-0.222-0.287-0.378-0.615-0.47-0.983s-0.138-0.909-0.138-1.623V32.09
		v-4.683h-1.337v-2.694h1.337v-2.23h3.688v2.23h4.926v2.694h-4.926v4.748c0,0.707,0.079,1.156,0.237,1.348s0.477,0.287,0.956,0.287
		c0.448,0,0.754-0.085,0.916-0.254s0.243-0.501,0.243-0.994V31.57h3.069V32.885z M194.349,36.341h-3.688v-6.736
		c0-0.846-0.098-1.395-0.293-1.645c-0.195-0.251-0.649-0.376-1.364-0.376c-0.566,0-0.957,0.138-1.17,0.414
		c-0.214,0.276-0.32,0.886-0.32,1.828v6.515h-3.688V19.898h3.688v6.471c0.162-0.596,0.51-1.047,1.044-1.353
		c0.533-0.306,1.242-0.458,2.125-0.458c1.384,0,2.341,0.296,2.871,0.889s0.795,1.706,0.795,3.341V36.341z M213.124,35.59
		c0,1.192-0.085,2.07-0.254,2.634c-0.17,0.563-0.457,1.044-0.861,1.441c-0.347,0.338-0.827,0.61-1.441,0.816s-1.257,0.31-1.927,0.31
		h-1.259c-1.421,0-2.498-0.254-3.23-0.762s-1.099-1.256-1.099-2.242v-0.651h3.556c0,0.376,0.081,0.639,0.243,0.79
		c0.162,0.15,0.449,0.226,0.861,0.226h0.541c0.516,0,0.867-0.132,1.055-0.397c0.188-0.265,0.281-0.795,0.281-1.59v-1.7
		c-0.265,0.56-0.658,0.966-1.182,1.22c-0.522,0.254-1.236,0.381-2.142,0.381c-1.281,0-2.224-0.354-2.827-1.065
		c-0.604-0.71-0.905-1.823-0.905-3.34v-2.33c0-1.642,0.311-2.848,0.933-3.617c0.622-0.769,1.596-1.153,2.921-1.153
		c0.736,0,1.365,0.136,1.889,0.408c0.522,0.272,0.909,0.67,1.159,1.192v-1.446h3.688V35.59z M225.332,31.725
		c0,1.768-0.344,3.004-1.032,3.711c-0.688,0.706-1.883,1.06-3.583,1.06h-1.557c-1.701,0-2.896-0.354-3.584-1.06
		c-0.688-0.707-1.032-1.943-1.032-3.711v-2.396c0-1.76,0.344-2.994,1.032-3.705c0.688-0.71,1.883-1.065,3.584-1.065h1.557
		c1.7,0,2.895,0.355,3.583,1.065c0.688,0.711,1.032,1.945,1.032,3.705V31.725z M237.066,31.725c0,1.768-0.344,3.004-1.032,3.711
		c-0.688,0.706-1.883,1.06-3.583,1.06h-1.557c-1.701,0-2.896-0.354-3.584-1.06c-0.688-0.707-1.032-1.943-1.032-3.711v-2.396
		c0-1.76,0.344-2.994,1.032-3.705c0.688-0.71,1.883-1.065,3.584-1.065h1.557c1.7,0,2.895,0.355,3.583,1.065
		c0.688,0.711,1.032,1.945,1.032,3.705V31.725z M248.667,35.59c0,1.192-0.085,2.07-0.254,2.634c-0.17,0.563-0.457,1.044-0.861,1.441
		c-0.347,0.338-0.827,0.61-1.441,0.816s-1.257,0.31-1.927,0.31h-1.259c-1.421,0-2.498-0.254-3.23-0.762s-1.099-1.256-1.099-2.242
		v-0.651h3.556c0,0.376,0.081,0.639,0.243,0.79c0.162,0.15,0.449,0.226,0.861,0.226h0.541c0.516,0,0.867-0.132,1.055-0.397
		c0.188-0.265,0.281-0.795,0.281-1.59v-1.7c-0.265,0.56-0.658,0.966-1.182,1.22c-0.522,0.254-1.236,0.381-2.142,0.381
		c-1.281,0-2.224-0.354-2.827-1.065c-0.604-0.71-0.905-1.823-0.905-3.34v-2.33c0-1.642,0.311-2.848,0.933-3.617
		c0.622-0.769,1.596-1.153,2.921-1.153c0.736,0,1.365,0.136,1.889,0.408c0.522,0.272,0.909,0.67,1.159,1.192v-1.446h3.688V35.59z
		 M254.482,36.341h-3.754V19.898h3.754V36.341z M266.624,31.162h-7.078v1.424c0,0.523,0.108,0.892,0.326,1.104
		c0.217,0.214,0.598,0.32,1.142,0.32h0.475c0.51,0,0.865-0.088,1.072-0.265c0.205-0.177,0.33-0.497,0.375-0.961h3.645
		c-0.088,1.317-0.49,2.266-1.203,2.844c-0.715,0.578-1.838,0.866-3.369,0.866h-1.556c-1.701,0-2.896-0.354-3.584-1.06
		c-0.688-0.707-1.032-1.943-1.032-3.711v-2.396c0-1.76,0.344-2.994,1.032-3.705c0.688-0.71,1.883-1.065,3.584-1.065h1.556
		c1.701,0,2.895,0.355,3.584,1.065c0.688,0.711,1.031,1.945,1.031,3.705V31.162z"/>
	<path fill="#FFFFFF" d="M261.513,26.889h-0.475c-0.575,0-0.967,0.123-1.176,0.369c-0.21,0.247-0.315,0.728-0.315,1.441v0.52h3.457
		V28.81c0-0.772-0.102-1.286-0.303-1.54C262.497,27.016,262.101,26.889,261.513,26.889z"/>
</g>
</svg>
