<?xml version="1.0" encoding="utf-8"?>
<!-- Generator: Adobe Illustrator 16.0.0, SVG Export Plug-In . SVG Version: 6.00 Build 0)  -->
<!DOCTYPE svg PUBLIC "-//W3C//DTD SVG 1.1//EN" "http://www.w3.org/Graphics/SVG/1.1/DTD/svg11.dtd">
<svg version="1.1" id="Layer_1" xmlns="http://www.w3.org/2000/svg" xmlns:xlink="http://www.w3.org/1999/xlink" x="0px" y="0px"
	 width="316px" height="79px" viewBox="0 0 316 79" enable-background="new 0 0 316 79" xml:space="preserve">
<g>
	<g>
		<path fill="#FFFFFF" d="M15.919,34.399l0.6,9.234c0,2.489,2.01,4.501,4.495,4.501h9.231c2.483,0,4.496-2.012,4.496-4.501
			l1.194-13.732H20.417C17.934,29.901,15.919,31.916,15.919,34.399z M23.858,40.345l6.584-6.578c0.686-0.688,1.798-0.688,2.483,0
			c0.683,0.686,0.683,1.797,0,2.477l-9.067,9.067l-5.08-5.081c-0.683-0.688-0.683-1.798,0-2.483c0.686-0.683,1.8-0.683,2.482,0
			L23.858,40.345z"/>
		<path fill="#FFFFFF" d="M32.569,57.522c-1,0-1.82,0.812-1.82,1.813c0,1.009,0.82,1.824,1.82,1.824
			c1.006,0,1.821-0.815,1.821-1.824C34.391,58.334,33.575,57.522,32.569,57.522z"/>
		<path fill="#FFFFFF" d="M20.349,57.522c-1.006,0-1.82,0.812-1.82,1.813c0,1.009,0.814,1.824,1.82,1.824
			c1.007,0,1.821-0.815,1.821-1.824C22.17,58.334,21.355,57.522,20.349,57.522z"/>
		<path fill="#FFFFFF" d="M60.771,27.068h-2.203c-3.151,0-5.243,0.532-6.281,1.597c-1.053,1.074-1.58,3.095-1.58,6.072v1.242h18.008
			v-1.242c0-2.977-0.533-4.998-1.595-6.072C66.048,27.6,63.936,27.068,60.771,27.068z"/>
		<path fill="#FFFFFF" d="M70.061,2h-59.29C6.393,2,2.839,5.551,2.839,9.931v59.294c0,4.375,3.554,7.925,7.932,7.925h59.29
			c4.381,0,7.932-3.551,7.932-7.925V9.931C77.992,5.551,74.441,2,70.061,2z M42.019,47.317c0,4.06-2.988,7.402-6.881,7.987
			c1.333,0.853,2.219,2.342,2.219,4.03c0,2.647-2.145,4.792-4.787,4.792c-2.642,0-4.789-2.145-4.789-4.792
			c0-1.627,0.82-3.065,2.071-3.928H23.07c1.244,0.862,2.065,2.301,2.065,3.928c0,2.647-2.139,4.792-4.787,4.792
			c-2.642,0-4.786-2.145-4.786-4.792c0-1.627,0.817-3.065,2.065-3.928h-0.297c-4.472,0-8.091-3.624-8.091-8.09L8.646,30.716
			c0-4.469,3.618-8.087,8.09-8.087c0,0,19.528,0.015,19.793,0.041l1.029-9.89h7.275L42.019,47.317z M73.582,40.118L50.706,40.15
			c-0.012,0.321-0.035,0.68-0.041,1.068c-0.012,0.394-0.015,0.941-0.015,1.647c0,3.283,0.518,5.484,1.571,6.599
			c1.047,1.121,3.165,1.683,6.346,1.683h2.203c2.836,0,4.813-0.406,5.925-1.224c1.106-0.818,1.748-2.245,1.93-4.271h4.898
			c-0.244,3.436-1.356,5.928-3.327,7.458c-1.977,1.53-5.096,2.297-9.367,2.297h-2.2c-4.76,0-8.078-0.926-9.973-2.78
			c-1.896-1.856-2.839-5.107-2.839-9.761v-7.549c0-4.675,0.938-7.938,2.826-9.793c1.883-1.848,5.184-2.777,9.924-2.777h2.203
			c4.754,0,8.078,0.93,9.967,2.777c1.897,1.856,2.845,5.119,2.845,9.793V40.118z"/>
	</g>
	<path fill="#FFFFFF" d="M97.567,55.271c-4.795,0-8.151-0.938-10.061-2.806c-1.907-1.871-2.866-5.151-2.866-9.847v-7.623
		c0-4.713,0.953-8.008,2.854-9.879c1.901-1.868,5.237-2.807,10.015-2.807h2.224c4.534,0,7.796,0.874,9.803,2.61
		c2.001,1.735,3.042,4.592,3.124,8.549l-4.907,0.035c-0.103-2.601-0.694-4.395-1.771-5.366c-1.077-0.979-3.156-1.465-6.249-1.465
		h-2.224c-3.271,0-5.413,0.547-6.419,1.645c-1.007,1.104-1.51,3.681-1.51,7.746v5.487c0,4.083,0.509,6.678,1.527,7.775
		c1.018,1.094,3.153,1.642,6.401,1.642h2.224c3.131,0,5.249-0.53,6.357-1.598c1.106-1.071,1.662-3.015,1.662-5.836V42.98h4.907
		v0.615c0,4.184-0.988,7.175-2.971,8.976c-1.983,1.801-5.278,2.701-9.896,2.701H97.567z"/>
	<path fill="#FFFFFF" d="M128.572,55.271c-4.792,0-8.149-0.938-10.059-2.806c-1.912-1.871-2.865-5.151-2.865-9.847v-7.623
		c0-4.713,0.947-8.008,2.848-9.879c1.9-1.868,5.242-2.807,10.015-2.807h2.224c4.795,0,8.152,0.938,10.064,2.807
		c1.909,1.871,2.862,5.166,2.862,9.879v7.623c0,4.713-0.947,8.002-2.848,9.861c-1.9,1.859-5.239,2.792-10.015,2.792H128.572z
		 M138.754,41.551v-5.487c0-4.045-0.512-6.622-1.538-7.731c-1.027-1.109-3.187-1.66-6.481-1.66h-2.224
		c-3.271,0-5.41,0.547-6.417,1.645c-1.009,1.104-1.509,3.681-1.509,7.746v5.487c0,4.083,0.506,6.678,1.523,7.775
		c1.019,1.094,3.151,1.642,6.402,1.642h2.224c3.277,0,5.428-0.553,6.463-1.677C138.233,48.176,138.754,45.596,138.754,41.551z"/>
	<path fill="#FFFFFF" d="M148.633,54.845V22.743h4.631v4.389c0.671-1.645,1.794-2.865,3.371-3.648
		c1.577-0.782,3.653-1.174,6.233-1.174c2.722,0,4.852,0.421,6.388,1.253c1.529,0.838,2.674,2.183,3.427,4.057
		c0.938-1.874,2.171-3.219,3.707-4.057c1.535-0.833,3.542-1.253,6.021-1.253c4.204,0,7.123,0.839,8.746,2.504
		c1.627,1.668,2.439,4.666,2.439,8.993v21.038h-4.754V35.299c0-3.575-0.465-5.916-1.389-7.025c-0.924-1.109-2.73-1.662-5.407-1.662
		c-2.966,0-5.131,0.759-6.479,2.271c-1.353,1.515-2.029,3.948-2.029,7.302v18.661h-4.604V33.107c0-2.539-0.465-4.254-1.389-5.151
		c-0.924-0.894-2.686-1.344-5.289-1.344c-3.048,0-5.29,0.774-6.723,2.318c-1.43,1.547-2.147,3.962-2.147,7.254v18.661H148.633z"/>
	<path fill="#FFFFFF" d="M198.933,22.743h4.543v4.999c0.771-1.871,1.977-3.245,3.609-4.116c1.639-0.874,3.833-1.315,6.572-1.315
		c4.574,0,7.799,0.951,9.679,2.839c1.877,1.889,2.818,5.172,2.818,9.846v7.623c0,4.651-0.941,7.928-2.818,9.814
		c-1.88,1.889-5.104,2.839-9.679,2.839c-2.645,0-4.739-0.391-6.296-1.18c-1.556-0.776-2.792-2.05-3.703-3.821v13.462h-4.726V22.743z
		 M203.658,41.43c0,3.327,0.776,5.757,2.329,7.27c1.557,1.515,4.052,2.268,7.49,2.268c3.106,0,5.172-0.553,6.202-1.677
		c1.023-1.115,1.538-3.695,1.538-7.74v-5.487c0-4.065-0.515-6.657-1.538-7.772c-1.03-1.124-3.096-1.68-6.202-1.68
		c-3.438,0-5.934,0.759-7.49,2.271c-1.553,1.515-2.329,3.948-2.329,7.302V41.43z"/>
	<path fill="#FFFFFF" d="M230.394,54.845V22.743h4.604v4.389c0.671-1.668,1.715-2.889,3.136-3.66
		c1.424-0.773,3.313-1.162,5.675-1.162c3.498,0,5.951,0.845,7.363,2.533c1.412,1.686,2.112,4.675,2.112,8.964v0.244h-4.783v-0.944
		c0-2.565-0.403-4.283-1.218-5.169c-0.813-0.885-2.345-1.327-4.604-1.327c-2.645,0-4.554,0.747-5.73,2.245
		c-1.18,1.492-1.769,3.936-1.769,7.328v18.661H230.394z"/>
	<path fill="#FFFFFF" d="M277.761,51.459c-0.735,1.344-1.9,2.313-3.495,2.913c-1.6,0.6-3.81,0.9-6.631,0.9
		c-5.019,0-8.384-0.721-10.091-2.153c-1.706-1.43-2.559-4.098-2.559-8.005c0-2.248,0.199-4.021,0.594-5.298
		c0.395-1.283,1.053-2.31,1.965-3.08c0.771-0.65,1.906-1.115,3.396-1.386c1.497-0.276,3.647-0.415,6.454-0.415
		c2.906,0,5.125,0.238,6.657,0.718c1.533,0.474,2.687,1.277,3.46,2.392v-5.548c0-2.618-0.503-4.316-1.521-5.089
		c-1.021-0.771-3.571-1.159-7.655-1.159c-2.965,0-4.937,0.312-5.913,0.93c-0.977,0.621-1.485,1.789-1.523,3.489h-4.725v-0.729
		c0-2.745,0.885-4.698,2.665-5.872c1.776-1.168,4.842-1.753,9.19-1.753c3.395,0,5.978,0.147,7.743,0.433
		c1.771,0.283,3.083,0.741,3.936,1.371c0.933,0.729,1.592,1.633,1.98,2.709c0.385,1.08,0.585,2.927,0.585,5.551v22.47h-4.333
		L277.761,51.459z M277.511,46.672V43.29c0-1.527-0.773-2.642-2.33-3.354c-1.553-0.712-4.033-1.065-7.428-1.065
		c-3.104,0-5.184,0.388-6.231,1.171c-1.047,0.78-1.57,2.283-1.57,4.498c0,2.521,0.553,4.201,1.662,5.045
		c1.108,0.841,3.333,1.265,6.663,1.265c2.989,0,5.271-0.362,6.86-1.085C276.723,49.046,277.511,48.011,277.511,46.672z"/>
	<path fill="#FFFFFF" d="M286.357,45.302h4.813v0.729c0,1.974,0.612,3.33,1.833,4.071c1.215,0.745,3.665,1.112,7.343,1.112
		c4.128,0,6.663-0.376,7.622-1.13c0.957-0.75,1.43-2.203,1.43-4.357c0-2.091-0.394-3.495-1.17-4.195
		c-0.783-0.697-2.739-1.13-5.869-1.294c-1.162-0.059-2.725-0.124-4.692-0.18c-4.313-0.124-6.87-0.417-7.679-0.885
		c-1.224-0.671-2.092-1.583-2.612-2.745c-0.518-1.162-0.776-2.824-0.776-5.001c0-3.551,0.9-5.963,2.712-7.222
		c1.807-1.259,5.79-1.895,11.95-1.895c4.774,0,8.014,0.601,9.711,1.804c1.691,1.2,2.542,3.301,2.542,6.31h-4.751v-0.306
		c0-1.424-0.618-2.404-1.845-2.942c-1.229-0.539-3.675-0.803-7.331-0.803c-3.539,0-5.799,0.321-6.77,0.974
		c-0.977,0.647-1.462,2.006-1.462,4.081c0,1.259,0.088,2.15,0.268,2.65c0.188,0.512,0.512,0.897,0.979,1.162
		c0.956,0.509,3.065,0.806,6.34,0.886c0.839,0.018,1.477,0.041,1.921,0.059c2.687,0.1,4.787,0.241,6.313,0.412
		c1.521,0.17,2.609,0.412,3.26,0.715c1.424,0.65,2.433,1.588,3.033,2.804c0.6,1.224,0.9,2.992,0.9,5.304
		c0,2.359-0.292,4.151-0.883,5.366c-0.592,1.221-1.65,2.301-3.172,3.236c-0.688,0.447-1.817,0.768-3.386,0.956
		c-1.563,0.194-3.739,0.294-6.522,0.294c-5.689,0-9.455-0.659-11.294-1.971c-1.841-1.313-2.756-3.692-2.756-7.149V45.302z"/>
</g>
</svg>
