<?xml version="1.0" encoding="utf-8"?>
<!-- Generator: Adobe Illustrator 16.0.0, SVG Export Plug-In . SVG Version: 6.00 Build 0)  -->
<!DOCTYPE svg PUBLIC "-//W3C//DTD SVG 1.1//EN" "http://www.w3.org/Graphics/SVG/1.1/DTD/svg11.dtd">
<svg version="1.1" id="Layer_1" xmlns="http://www.w3.org/2000/svg" xmlns:xlink="http://www.w3.org/1999/xlink" x="0px" y="0px"
	 width="60.833px" height="61px" viewBox="0 0 60.833 61" enable-background="new 0 0 60.833 61" xml:space="preserve">
<circle fill="#765CA6" cx="30.5" cy="30.5" r="29.5"/>
<circle fill="#FFFFFF" cx="42.999" cy="42.583" r="9.688"/>
<path fill="#765CA6" d="M49.04,39.643l-4.236,0.572l-0.57-4.236c-0.076-0.556-0.549-0.948-1.057-0.881l-2.334,0.316
	c-0.506,0.068-0.856,0.572-0.783,1.126l0.572,4.237l-4.235,0.572c-0.556,0.074-0.951,0.545-0.881,1.056l0.315,2.331
	c0.066,0.509,0.571,0.861,1.125,0.785l4.238-0.57l0.571,4.234c0.075,0.557,0.546,0.949,1.056,0.879l2.329-0.313
	c0.511-0.068,0.862-0.575,0.788-1.128l-0.572-4.237l4.234-0.57c0.557-0.075,0.949-0.547,0.881-1.056l-0.313-2.331
	C50.096,39.921,49.592,39.568,49.04,39.643z"/>
<ellipse fill="#FFFFFF" cx="26.712" cy="18.018" rx="8.508" ry="9.695"/>
<path fill="#FFFFFF" d="M19.787,27.504c0,0,0.923,2.638,6.925,2.638c6.001,0,6.001-2.638,6.001-2.638s5.013,0.792,7.65,3.693
	c0,0-10.816,1.318-9.232,13.189c0,0-14.51,0.924-22.82-2.373C8.311,42.014,6.809,31.189,19.787,27.504z"/>
<rect x="2.498" y="-84.121" fill="#25B9A1" width="55.838" height="55.514"/>
<polygon fill="#765CA6" points="2.498,-44.823 33.923,-61.012 33.923,-84.121 2.498,-84.121 "/>
<polygon fill="#F0592B" points="58.335,-43.061 2.498,-84.121 58.335,-84.121 "/>
</svg>
