<?xml version="1.0" encoding="utf-8"?>
<!-- Generator: Adobe Illustrator 16.0.0, SVG Export Plug-In . SVG Version: 6.00 Build 0)  -->
<!DOCTYPE svg PUBLIC "-//W3C//DTD SVG 1.1//EN" "http://www.w3.org/Graphics/SVG/1.1/DTD/svg11.dtd">
<svg version="1.1" id="Layer_1" xmlns="http://www.w3.org/2000/svg" xmlns:xlink="http://www.w3.org/1999/xlink" x="0px" y="0px"
	 width="24.667px" height="24.5px" viewBox="0 0 24.667 24.5" enable-background="new 0 0 24.667 24.5" xml:space="preserve">
<circle fill="#F15A2D" cx="18.995" cy="18.884" r="4.914"/>
<path fill="#D5D7D8" d="M22.059,17.393l-2.148,0.29l-0.29-2.148c-0.038-0.282-0.277-0.481-0.534-0.447l-1.185,0.16
	c-0.257,0.035-0.436,0.29-0.397,0.572l0.291,2.148l-2.149,0.29c-0.281,0.038-0.482,0.276-0.446,0.536l0.16,1.182
	c0.034,0.259,0.289,0.437,0.57,0.398l2.15-0.289l0.289,2.147c0.038,0.282,0.277,0.481,0.536,0.445l1.181-0.158
	c0.259-0.034,0.438-0.292,0.399-0.572l-0.29-2.148l2.148-0.29c0.282-0.038,0.48-0.276,0.446-0.535l-0.158-1.182
	C22.595,17.534,22.339,17.354,22.059,17.393z"/>
<ellipse fill="#F15A2D" cx="10.734" cy="5.917" rx="4.315" ry="4.917"/>
<path fill="#F15A2D" d="M7.223,11.235c0,0,0.468,1.339,3.512,1.339s3.044-1.339,3.044-1.339s2.542,0.402,3.881,1.873
	c0,0-5.326,0.861-4.683,6.69c0,0-7.36,0.469-11.574-1.204C1.402,18.595,0.641,13.105,7.223,11.235z"/>
</svg>
