<?xml version="1.0" encoding="utf-8"?>
<!-- Generator: Adobe Illustrator 16.0.0, SVG Export Plug-In . SVG Version: 6.00 Build 0)  -->
<!DOCTYPE svg PUBLIC "-//W3C//DTD SVG 1.1//EN" "http://www.w3.org/Graphics/SVG/1.1/DTD/svg11.dtd">
<svg version="1.1" id="Layer_1" xmlns="http://www.w3.org/2000/svg" xmlns:xlink="http://www.w3.org/1999/xlink" x="0px" y="0px"
	 width="29.75px" height="29.417px" viewBox="0 0 29.75 29.417" enable-background="new 0 0 29.75 29.417" xml:space="preserve">
<g>
	<path fill="#FFFFFF" d="M17.498,8.521c0.032,0.453-0.211,0.841-0.539,0.863L12.516,9.69c-0.327,0.022-0.621-0.327-0.651-0.781
		l-0.423-6.127c-0.031-0.454,0.211-0.843,0.539-0.865l4.443-0.307c0.327-0.022,0.621,0.329,0.653,0.783L17.498,8.521z"/>
	<path fill="#FFFFFF" d="M24.868,0.507l-5.437,0.374l0.551,8.005c0.059,0.837-0.577,1.563-1.414,1.622L7.262,11.288
		c-0.838,0.057-1.566-0.575-1.624-1.413L5.086,1.871L3.655,1.969C2.085,2.078,0.898,3.44,1.007,5.012l1.462,21.212
		c0.108,1.572,1.47,2.758,3.04,2.649l21.213-1.462c1.573-0.107,2.76-1.469,2.651-3.041L27.911,3.159
		C27.804,1.586,26.441,0.399,24.868,0.507z M25.123,23.586c0.048,0.696-0.347,1.29-1.437,1.365L8.134,26.023
		c-1.086,0.075-1.562-0.46-1.609-1.155l-0.647-9.385c-0.047-0.695,0.35-1.291,1.438-1.365l15.553-1.072
		c1.088-0.075,1.563,0.46,1.609,1.156L25.123,23.586z"/>
	<path fill="#FFFFFF" d="M22.433,17.39c0.032,0.471-0.324,0.879-0.795,0.911L8.807,19.186c-0.471,0.032-0.877-0.324-0.909-0.795l0,0
		c-0.033-0.473,0.321-0.881,0.792-0.913l12.831-0.885C21.991,16.561,22.399,16.917,22.433,17.39L22.433,17.39z"/>
	<path fill="#FFFFFF" d="M22.736,21.81c0.033,0.47-0.323,0.879-0.794,0.911L9.111,23.604c-0.471,0.033-0.877-0.323-0.91-0.793l0,0
		c-0.032-0.472,0.322-0.88,0.792-0.912l12.831-0.883C22.295,20.982,22.705,21.338,22.736,21.81L22.736,21.81z"/>
</g>
</svg>
