<?xml version="1.0" encoding="utf-8"?>
<!-- Generator: Adobe Illustrator 16.0.0, SVG Export Plug-In . SVG Version: 6.00 Build 0)  -->
<!DOCTYPE svg PUBLIC "-//W3C//DTD SVG 1.1//EN" "http://www.w3.org/Graphics/SVG/1.1/DTD/svg11.dtd">
<svg version="1.1" id="Layer_1" xmlns="http://www.w3.org/2000/svg" xmlns:xlink="http://www.w3.org/1999/xlink" x="0px" y="0px"
	 width="30px" height="30.167px" viewBox="0 0 30 30.167" enable-background="new 0 0 30 30.167" xml:space="preserve">
<path fill="#F1592B" d="M131.172,25.638l-5.808,6.547l-6.542-5.811c-0.858-0.759-2.118-0.735-2.813,0.049l-3.195,3.604
	c-0.694,0.781-0.568,2.033,0.289,2.792l6.546,5.808l-5.81,6.543c-0.76,0.859-0.744,2.115,0.045,2.815l3.604,3.195
	c0.783,0.699,2.034,0.568,2.796-0.288l5.809-6.543l6.542,5.805c0.86,0.76,2.115,0.743,2.813-0.048l3.195-3.592
	c0.697-0.791,0.57-2.043-0.285-2.804l-6.545-5.807l5.803-6.542c0.766-0.859,0.745-2.118-0.044-2.813l-3.596-3.199
	C133.184,24.662,131.934,24.788,131.172,25.638z"/>
<g>
	<path fill="#F1592B" d="M17.23,9.102c0.032,0.453-0.211,0.841-0.539,0.863l-4.443,0.306c-0.327,0.022-0.621-0.327-0.651-0.781
		l-0.423-6.127c-0.031-0.454,0.211-0.843,0.539-0.865l4.443-0.307c0.327-0.022,0.621,0.329,0.653,0.783L17.23,9.102z"/>
	<path fill="#F1592B" d="M24.601,1.088l-5.437,0.374l0.551,8.005c0.059,0.837-0.577,1.563-1.414,1.622L6.994,11.868
		c-0.838,0.057-1.566-0.575-1.624-1.413L4.818,2.451L3.388,2.55c-1.57,0.108-2.757,1.471-2.648,3.043l1.462,21.212
		c0.108,1.572,1.47,2.758,3.04,2.649l21.213-1.462c1.573-0.107,2.76-1.469,2.651-3.041L27.644,3.739
		C27.536,2.167,26.174,0.979,24.601,1.088z M24.855,24.167c0.048,0.696-0.347,1.29-1.437,1.365L7.866,26.604
		c-1.086,0.075-1.562-0.46-1.609-1.155l-0.647-9.385c-0.047-0.695,0.35-1.291,1.438-1.365L22.6,13.626
		c1.088-0.075,1.563,0.46,1.609,1.156L24.855,24.167z"/>
	<path fill="#F1592B" d="M22.165,17.971c0.032,0.471-0.324,0.879-0.795,0.911L8.539,19.767c-0.471,0.032-0.877-0.324-0.909-0.795
		l0,0c-0.033-0.473,0.321-0.881,0.792-0.913l12.831-0.885C21.724,17.142,22.132,17.498,22.165,17.971L22.165,17.971z"/>
	<path fill="#F1592B" d="M22.469,22.391c0.033,0.47-0.323,0.879-0.794,0.911L8.844,24.185c-0.471,0.033-0.877-0.323-0.91-0.793l0,0
		c-0.032-0.472,0.322-0.88,0.792-0.912l12.831-0.883C22.027,21.563,22.438,21.919,22.469,22.391L22.469,22.391z"/>
</g>
</svg>
