<?xml version="1.0" encoding="utf-8"?>
<!-- Generator: Adobe Illustrator 16.0.0, SVG Export Plug-In . SVG Version: 6.00 Build 0)  -->
<!DOCTYPE svg PUBLIC "-//W3C//DTD SVG 1.1//EN" "http://www.w3.org/Graphics/SVG/1.1/DTD/svg11.dtd">
<svg version="1.1" id="Layer_1" xmlns="http://www.w3.org/2000/svg" xmlns:xlink="http://www.w3.org/1999/xlink" x="0px" y="0px"
	 width="11.167px" height="14.083px" viewBox="0 0 11.167 14.083" enable-background="new 0 0 11.167 14.083" xml:space="preserve">
<g>
	<g>
		<path fill="#FFFFFF" d="M9.535,0.724l-2.254,0.23L6.606,0.417L4.021,0.681L3.5,1.34L1.186,1.577
			C0.767,1.62,0.461,1.995,0.504,2.415l0.065,0.643l9.869-1.008l-0.066-0.644C10.329,0.986,9.954,0.681,9.535,0.724z"/>
		<path fill="#FFFFFF" d="M1.294,3.34l0.975,9.534c0.043,0.419,0.418,0.725,0.837,0.682l6.954-0.711
			c0.42-0.043,0.727-0.417,0.684-0.837L9.769,2.475L1.294,3.34z M4.48,11.285c0.029,0.286-0.179,0.541-0.465,0.57
			s-0.542-0.178-0.571-0.465L2.819,5.275C2.79,4.989,2.998,4.733,3.285,4.704c0.286-0.029,0.541,0.18,0.57,0.465L4.48,11.285z
			 M7.101,10.935c0.039,0.39-0.243,0.738-0.635,0.778c-0.39,0.04-0.737-0.244-0.777-0.634L5.094,5.253
			c-0.04-0.391,0.243-0.738,0.633-0.778c0.392-0.04,0.738,0.243,0.778,0.634L7.101,10.935z M9.336,10.808
			c0.029,0.286-0.179,0.542-0.466,0.571c-0.284,0.029-0.54-0.179-0.569-0.466L7.676,4.8C7.646,4.513,7.855,4.257,8.14,4.229
			C8.427,4.2,8.683,4.408,8.712,4.695L9.336,10.808z"/>
	</g>
</g>
</svg>
