<?xml version="1.0" encoding="utf-8"?>
<!-- Generator: Adobe Illustrator 16.0.0, SVG Export Plug-In . SVG Version: 6.00 Build 0)  -->
<!DOCTYPE svg PUBLIC "-//W3C//DTD SVG 1.1//EN" "http://www.w3.org/Graphics/SVG/1.1/DTD/svg11.dtd">
<svg version="1.1" id="Layer_1" xmlns="http://www.w3.org/2000/svg" xmlns:xlink="http://www.w3.org/1999/xlink" x="0px" y="0px"
	 width="29.75px" height="29.417px" viewBox="0 0 29.75 29.417" enable-background="new 0 0 29.75 29.417" xml:space="preserve">
<path fill="#FFFFFF" d="M20.318,2.078l-5.808,6.547L7.969,2.814C7.11,2.056,5.851,2.079,5.155,2.863L1.96,6.468
	C1.266,7.249,1.392,8.501,2.249,9.26l6.546,5.808l-5.81,6.543c-0.76,0.859-0.744,2.115,0.045,2.815l3.604,3.195
	c0.783,0.699,2.034,0.568,2.796-0.288l5.809-6.543l6.542,5.805c0.86,0.76,2.115,0.743,2.813-0.048l3.195-3.592
	c0.697-0.791,0.57-2.043-0.285-2.804l-6.545-5.807l5.803-6.542c0.766-0.859,0.745-2.118-0.044-2.813l-3.596-3.199
	C22.33,1.102,21.08,1.228,20.318,2.078z"/>
</svg>
