<?xml version="1.0" encoding="utf-8"?>
<!-- Generator: Adobe Illustrator 16.0.0, SVG Export Plug-In . SVG Version: 6.00 Build 0)  -->
<!DOCTYPE svg PUBLIC "-//W3C//DTD SVG 1.1//EN" "http://www.w3.org/Graphics/SVG/1.1/DTD/svg11.dtd">
<svg version="1.1" id="Layer_1" xmlns="http://www.w3.org/2000/svg" xmlns:xlink="http://www.w3.org/1999/xlink" x="0px" y="0px"
	 width="8.583px" height="13.917px" viewBox="0 0 8.583 13.917" enable-background="new 0 0 8.583 13.917" xml:space="preserve">
<g>
	<g>
		<path fill="#FFFFFF" d="M7.818,3.01l0.358-0.82C8.313,1.878,8.171,1.516,7.86,1.379L5.306,0.263
			C4.994,0.126,4.632,0.268,4.495,0.58L4.137,1.4L7.818,3.01z"/>
		
			<rect x="3.539" y="2.715" transform="matrix(0.9163 0.4005 -0.4005 0.9163 1.7406 -1.9556)" fill="#FFFFFF" width="4.018" height="0.942"/>
		<path fill="#FFFFFF" d="M5.647,4.437l-2.396,5.48c-0.136,0.311-0.499,0.453-0.81,0.316l-0.013-0.005
			c-0.311-0.136-0.453-0.499-0.316-0.81L4.509,3.94L5.647,4.437z"/>
		<path fill="#FFFFFF" d="M4.025,3.729L3.265,3.395L0.647,9.378c0,0-0.095,0.125-0.075,0.37s0.299,3.23,0.299,3.23
			s0.009,0.43,0.274,0.546c0.265,0.115,0.552-0.201,0.646-0.27c0.093-0.07,2.433-1.902,2.433-1.902s0.151-0.092,0.264-0.35
			c0.113-0.259,2.598-5.938,2.598-5.938L6.25,4.701l-2.644,6.043l-1.499,1.23L1.59,11.748L1.376,9.768L4.025,3.729z"/>
	</g>
</g>
</svg>
