<?xml version="1.0" encoding="utf-8"?>
<!-- Generator: Adobe Illustrator 16.0.0, SVG Export Plug-In . SVG Version: 6.00 Build 0)  -->
<!DOCTYPE svg PUBLIC "-//W3C//DTD SVG 1.1//EN" "http://www.w3.org/Graphics/SVG/1.1/DTD/svg11.dtd">
<svg version="1.1" id="Layer_1" xmlns="http://www.w3.org/2000/svg" xmlns:xlink="http://www.w3.org/1999/xlink" x="0px" y="0px"
	 width="30px" height="30.167px" viewBox="0 0 30 30.167" enable-background="new 0 0 30 30.167" xml:space="preserve">
<path fill="#F1592B" d="M20.443,2.453L14.636,9L8.094,3.189C7.235,2.43,5.976,2.454,5.28,3.238L2.085,6.842
	C1.391,7.624,1.517,8.875,2.374,9.634l6.546,5.808l-5.81,6.543C2.351,22.844,2.366,24.1,3.155,24.8l3.604,3.195
	c0.783,0.699,2.034,0.568,2.796-0.288l5.809-6.543l6.542,5.805c0.86,0.76,2.115,0.743,2.813-0.048l3.195-3.592
	c0.697-0.791,0.57-2.043-0.285-2.804l-6.545-5.807l5.803-6.542c0.766-0.859,0.745-2.118-0.044-2.813l-3.596-3.199
	C22.455,1.476,21.205,1.602,20.443,2.453z"/>
</svg>
