<?xml version="1.0" encoding="utf-8"?>
<!-- Generator: Adobe Illustrator 16.0.0, SVG Export Plug-In . SVG Version: 6.00 Build 0)  -->
<!DOCTYPE svg PUBLIC "-//W3C//DTD SVG 1.1//EN" "http://www.w3.org/Graphics/SVG/1.1/DTD/svg11.dtd">
<svg version="1.1" id="Layer_1" xmlns="http://www.w3.org/2000/svg" xmlns:xlink="http://www.w3.org/1999/xlink" x="0px" y="0px"
	 width="60.833px" height="61px" viewBox="0 0 60.833 61" enable-background="new 0 0 60.833 61" xml:space="preserve">
<circle fill="#F1592B" cx="30.5" cy="30.5" r="29.5"/>
<path fill="#FFFFFF" d="M42.801,24.876c0,1.005-0.75,1.493-1.677,1.493H27.458c-0.927,0-1.677-0.488-1.677-1.493v-2.133
	c0-1.004,0.75-1.493,1.677-1.493h13.666c0.927,0,1.677,0.488,1.677,1.493V24.876z"/>
<path fill="#FFFFFF" d="M23.771,25.056c0,0.706-0.572,1.278-1.278,1.278h-2.492c-0.706,0-1.278-0.572-1.278-1.278v-2.492
	c0-0.706,0.572-1.277,1.278-1.277h2.492c0.706,0,1.278,0.572,1.278,1.277V25.056z"/>
<path fill="#FFFFFF" d="M23.771,31.883c0,0.705-0.572,1.277-1.278,1.277h-2.492c-0.706,0-1.278-0.572-1.278-1.277V29.39
	c0-0.705,0.572-1.277,1.278-1.277h2.492c0.706,0,1.278,0.572,1.278,1.277V31.883z"/>
<path fill="#FFFFFF" d="M23.771,38.488c0,0.705-0.572,1.277-1.278,1.277h-2.492c-0.706,0-1.278-0.572-1.278-1.277v-2.493
	c0-0.705,0.572-1.277,1.278-1.277h2.492c0.706,0,1.278,0.573,1.278,1.277V38.488z"/>
<path fill="#FFFFFF" d="M31.01,44.176H19.436c-1.68,0-3.042-1.488-3.042-3.324V20.419c0-1.835,1.362-3.323,3.042-3.323h21.986
	c1.68,0,3.043,1.488,3.043,3.323v9.125c1.919,0.264,3.694,0.978,5.216,2.033V16.623c0-2.517-1.869-4.558-4.174-4.558H15.352
	c-2.306,0-4.174,2.041-4.174,4.558V44.65c0,2.517,1.869,4.557,4.174,4.557h18.125C32.291,47.771,31.433,46.057,31.01,44.176z"/>
<path fill="#FFFFFF" d="M32.849,34.682h-5.391c-0.927,0-1.677,0.489-1.677,1.493v2.134c0,1.004,0.75,1.492,1.677,1.492h3.381
	C31.111,37.919,31.815,36.179,32.849,34.682z"/>
<path fill="#FFFFFF" d="M42.796,29.467c-0.05-0.935-0.778-1.391-1.672-1.391H27.458c-0.927,0-1.677,0.489-1.677,1.493v2.134
	c0,1.004,0.75,1.493,1.677,1.493h6.616C36.273,30.9,39.367,29.468,42.796,29.467z"/>
<circle fill="#FFFFFF" cx="42.801" cy="41.474" r="9.021"/>
<path fill="#F1592B" d="M48.426,38.736l-3.946,0.533l-0.531-3.945c-0.071-0.517-0.511-0.883-0.984-0.82l-2.172,0.294
	c-0.471,0.064-0.798,0.533-0.73,1.049l0.534,3.946l-3.945,0.533c-0.518,0.07-0.885,0.507-0.82,0.983l0.293,2.171
	c0.063,0.474,0.533,0.801,1.049,0.731l3.946-0.532l0.532,3.944c0.071,0.517,0.509,0.884,0.983,0.819l2.169-0.291
	c0.475-0.065,0.802-0.535,0.734-1.051l-0.534-3.946l3.944-0.532c0.519-0.069,0.885-0.509,0.82-0.982l-0.291-2.171
	C49.41,38.996,48.941,38.667,48.426,38.736z"/>
</svg>
