<?xml version="1.0" encoding="utf-8"?>
<!-- Generator: Adobe Illustrator 16.0.0, SVG Export Plug-In . SVG Version: 6.00 Build 0)  -->
<!DOCTYPE svg PUBLIC "-//W3C//DTD SVG 1.1//EN" "http://www.w3.org/Graphics/SVG/1.1/DTD/svg11.dtd">
<svg version="1.1" id="Layer_1" xmlns="http://www.w3.org/2000/svg" xmlns:xlink="http://www.w3.org/1999/xlink" x="0px" y="0px"
	 width="60.833px" height="61px" viewBox="0 0 60.833 61" enable-background="new 0 0 60.833 61" xml:space="preserve">
<circle fill="#F1592B" cx="30.5" cy="30.5" r="29.5"/>
<circle fill="#FFFFFF" cx="42.999" cy="42.583" r="9.688"/>
<path fill="#F1592B" d="M49.04,39.643l-4.237,0.572l-0.57-4.237c-0.076-0.555-0.549-0.948-1.057-0.88l-2.333,0.316
	c-0.506,0.068-0.857,0.572-0.784,1.126l0.573,4.237l-4.236,0.572c-0.556,0.075-0.951,0.545-0.881,1.056l0.315,2.332
	c0.067,0.508,0.572,0.86,1.126,0.785l4.238-0.571l0.571,4.235c0.076,0.556,0.546,0.949,1.056,0.879l2.329-0.313
	c0.51-0.069,0.862-0.575,0.788-1.128l-0.573-4.237l4.235-0.571c0.557-0.075,0.95-0.546,0.881-1.055l-0.313-2.332
	C50.096,39.921,49.593,39.569,49.04,39.643z"/>
<ellipse fill="#FFFFFF" cx="26.712" cy="17.018" rx="8.508" ry="9.695"/>
<path fill="#FFFFFF" d="M19.787,27.504c0,0,0.923,2.638,6.925,2.638c6.002,0,6.002-2.638,6.002-2.638s5.012,0.792,7.65,3.693
	c0,0-10.816,1.319-9.233,13.19c0,0-14.51,0.923-22.82-2.374C8.311,42.014,6.809,31.189,19.787,27.504z"/>
</svg>
